<svg xmlns="http://www.w3.org/2000/svg" viewBox="100 220 780 240" width="800" height="240">
  <!-- Chicken Icon (Left Side) -->
  <g id="chicken-icon">
    <!-- Main chicken head body - Red -->
    <path fill="#E53935" d="M 211 262 C 211 262, 212 267, 213 273 C 216 285, 213 298, 205 306 C 203 309, 200 311, 200 311 C 199 311, 199 309, 199 307 C 199 300, 193 290, 186 286 C 182 284, 181 285, 181 289 C 181 295, 179 305, 176 309 C 172 318, 161 329, 157 329 C 156 329, 155 327, 154 322 C 153 318, 151 315, 151 315 C 151 315, 147 318, 144 321 C 122 339, 110 369, 114 396 C 115 401, 115 405, 116 405 C 116 406, 118 403, 120 400 C 136 364, 175 339, 214 339 C 230 339, 243 344, 255 356 C 259 360, 263 363, 263 362 C 264 362, 265 359, 266 355 C 268 349, 268 345, 268 334 C 268 321, 268 319, 266 311 C 260 292, 245 276, 224 266 C 218 263, 211 261, 211 262 Z"/>

    <!-- Wattle/beak details - Orange -->
    <path fill="#FFA726" d="M 175 357 C 165 362, 160 365, 151 372 C 140 381, 131 391, 123 406 L 118 414 121 421 C 130 441, 143 455, 162 464 C 174 470, 180 471, 197 471 C 213 471, 218 470, 231 464 L 237 462 237 452 C 237 446, 237 443, 238 443 C 239 443, 241 444, 242 446 C 247 449, 251 449, 256 444 C 261 439, 263 431, 263 421 C 262 413, 261 409, 258 409 C 254 408, 248 410, 240 415 C 215 430, 212 431, 208 427 C 207 426, 203 424, 200 423 C 199 422, 198 420, 197 418 C 196 416, 195 414, 195 414 C 194 414, 194 414, 194 413 C 194 412, 192 410, 190 408 C 187 405, 186 404, 186 401 C 186 399, 185 395, 185 391 C 182 382, 182 374, 183 369 C 184 364, 184 357, 183 355 C 183 354, 181 355, 175 357 Z"/>

    <!-- Eye - Black -->
    <circle fill="#1F1A1E" cx="224" cy="380" r="8"/>

    <!-- Flame accent - Yellow/Orange -->
    <path fill="#FB9E1A" d="M 256 378 C 253 385, 246 408, 246 409 C 247 409, 250 407, 253 405 C 261 400, 276 392, 284 390 C 288 389, 291 388, 291 388 C 291 386, 270 378, 261 376 C 257 375, 257 375, 256 378 Z"/>
  </g>

  <!-- "ChickenTinders" Text (Right Side) -->
  <g id="text" fill="#E53935">
    <!-- Letter C -->
    <path d="M 327 360 C 319 362, 315 365, 311 371 C 305 379, 303 388, 303 398 C 304 413, 311 423, 322 429 C 327 431, 329 432, 337 432 C 342 432, 348 431, 350 430 L 354 429 354 422 L 354 416 350 417 C 348 417, 343 417, 340 417 C 334 417, 332 417, 329 415 C 318 407, 318 383, 329 375 C 334 371, 341 371, 350 373 C 353 374, 353 374, 353 368 C 354 365, 354 362, 354 361 C 352 358, 335 357, 327 360 Z"/>

    <!-- Letter h -->
    <path d="M 363 357 L 359 357 359 394 L 359 431 367 431 L 374 431 374 415 L 374 399 377 397 C 380 395, 385 395, 386 397 C 387 398, 387 406, 387 415 L 387 431 395 431 L 402 431 402 412 C 402 391, 402 389, 398 385 C 394 382, 386 382, 380 386 C 374 390, 374 390, 374 372 L 374 356 370 356 C 368 356, 365 357, 363 357 Z"/>

    <!-- Letter i -->
    <path d="M 411 359 C 406 363, 408 372, 414 374 C 422 375, 428 367, 423 360 C 421 357, 414 356, 411 359 Z M 412 384 L 408 384 408 403 C 408 413, 408 424, 409 426 L 409 431 417 431 L 424 431 424 407 L 424 383 420 383 C 417 383, 414 384, 412 384 Z"/>

    <!-- Letter c -->
    <path d="M 441 385 C 435 388, 433 390, 430 396 C 429 399, 428 402, 428 407 C 428 416, 430 421, 434 426 C 440 432, 448 433, 458 431 L 462 430 462 424 L 462 419 456 420 C 448 421, 445 419, 444 410 C 443 406, 445 400, 448 397 C 450 395, 451 395, 456 395 C 461 396, 461 396, 461 393 C 463 387, 462 385, 459 384 C 455 382, 445 383, 441 385 Z"/>

    <!-- Letter k -->
    <path d="M 471 357 L 466 357 466 394 L 466 431 474 431 L 481 431 481 421 C 481 415, 481 410, 482 410 C 482 410, 485 415, 488 421 L 494 431 501 431 C 506 431, 509 431, 509 430 C 509 429, 498 408, 496 406 C 495 406, 497 402, 501 395 C 505 390, 508 385, 508 384 C 508 383, 505 383, 501 383 L 494 383 488 393 C 485 398, 482 402, 482 402 C 481 402, 481 391, 481 379 L 481 356 478 356 C 477 356, 473 357, 471 357 Z"/>

    <!-- Letter e -->
    <path d="M 519 385 C 504 393, 503 421, 518 429 C 522 431, 524 431, 531 431 C 535 431, 540 431, 543 430 C 546 429, 547 428, 547 424 C 547 417, 547 417, 540 419 C 537 420, 533 421, 531 421 C 527 420, 523 416, 523 412 C 523 410, 523 410, 535 410 L 548 410 547 403 C 547 394, 545 389, 541 386 C 536 383, 524 382, 519 385 Z M 526 394 C 524 395, 523 397, 523 399 C 523 402, 523 402, 529 402 C 534 402, 534 402, 534 399 C 534 394, 530 391, 526 394 Z"/>

    <!-- Letter n -->
    <path d="M 554 384 C 552 384, 552 384, 552 392 C 553 396, 553 406, 553 415 L 553 431 561 431 L 568 431 568 414 L 568 398 571 396 C 574 395, 575 395, 577 396 L 580 397 580 414 L 580 431 588 431 L 595 431 595 411 C 595 398, 595 390, 594 389 C 592 385, 589 383, 583 383 C 577 383, 575 384, 571 387 C 569 390, 566 389, 566 386 C 566 383, 566 383, 561 383 C 559 383, 555 383, 554 384 Z"/>

    <!-- Letter T -->
    <path d="M 593 359 C 592 359, 592 362, 592 366 L 593 372 601 372 L 609 373 609 402 L 609 431 616 431 C 623 431, 624 431, 624 429 C 625 428, 625 414, 625 399 L 625 372 633 372 L 641 372 641 365 L 641 358 618 358 C 605 358, 593 358, 593 359 Z"/>

    <!-- Letter i -->
    <path d="M 650 358 C 647 359, 645 361, 645 365 C 645 372, 651 376, 657 373 C 660 371, 661 369, 661 364 C 661 359, 655 356, 650 358 Z M 649 384 L 646 384 646 392 C 645 403, 645 426, 646 429 C 646 431, 647 431, 653 431 L 660 431 660 407 L 660 383 656 383 C 654 383, 651 383, 649 384 Z"/>

    <!-- Letter n -->
    <path d="M 670 384 L 667 384 667 408 L 667 431 673 431 C 677 431, 680 430, 681 430 C 682 429, 682 424, 682 414 C 682 398, 682 397, 689 395 C 694 394, 695 397, 695 415 L 695 431 702 431 L 709 431 709 410 L 709 389 705 386 C 700 381, 691 382, 685 388 C 682 390, 680 389, 680 386 C 680 383, 680 383, 676 383 C 674 383, 671 383, 670 384 Z"/>

    <!-- Letter d -->
    <path d="M 744 358 L 741 358 741 371 L 741 383 736 383 C 727 383, 720 387, 716 394 C 714 398, 714 400, 714 409 C 714 420, 715 425, 721 429 C 726 432, 733 432, 738 429 C 740 427, 742 426, 742 426 C 743 426, 743 427, 744 429 C 744 431, 745 431, 750 431 L 756 431 756 394 L 756 357 751 357 C 749 357, 745 357, 744 358 Z M 733 395 C 728 398, 727 410, 729 416 C 731 421, 735 422, 739 420 C 741 418, 741 418, 741 406 L 741 395 738 394 C 736 394, 734 395, 733 395 Z"/>

    <!-- Letter e -->
    <path d="M 773 385 C 764 389, 761 396, 761 409 C 761 420, 764 425, 771 429 C 777 432, 785 433, 792 430 L 799 429 799 423 C 799 418, 799 418, 797 418 C 786 421, 784 421, 781 420 C 778 419, 775 414, 775 411 C 775 410, 780 410, 787 410 C 802 410, 802 410, 800 400 C 798 388, 794 384, 783 383 C 778 383, 775 383, 773 385 Z M 777 395 C 776 396, 776 398, 776 399 C 776 402, 776 402, 781 402 C 786 402, 787 401, 787 399 C 788 394, 779 391, 777 395 Z"/>

    <!-- Letter r -->
    <path d="M 812 384 C 811 384, 808 384, 807 385 L 805 385 805 408 L 805 431 812 431 L 819 431 819 418 C 819 404, 820 401, 825 398 C 827 398, 829 397, 831 397 C 833 398, 833 398, 833 392 C 833 389, 833 385, 834 384 C 835 382, 826 383, 823 386 C 820 390, 818 390, 818 386 C 818 383, 818 383, 812 384 Z"/>

    <!-- Letter s -->
    <path d="M 844 385 C 839 387, 836 392, 836 398 C 836 403, 839 408, 847 412 C 854 416, 855 417, 853 420 C 852 421, 850 421, 844 421 L 837 421 836 424 C 836 427, 836 429, 837 429 C 837 430, 840 430, 844 431 C 853 432, 860 431, 865 425 C 868 422, 868 421, 868 416 C 868 410, 866 407, 857 402 C 850 398, 849 396, 852 394 C 854 393, 856 393, 860 394 C 865 395, 866 395, 866 389 C 866 385, 865 384, 863 384 C 858 382, 849 383, 844 385 Z"/>
  </g>

  <!-- Gradient version for "Tinders" part -->
  <defs>
    <linearGradient id="textGradient" x1="0%" y1="0%" x2="100%" y2="0%">
      <stop offset="0%" style="stop-color:#E53935;stop-opacity:1" />
      <stop offset="100%" style="stop-color:#FFA726;stop-opacity:1" />
    </linearGradient>
  </defs>
</svg>
