<svg xmlns="http://www.w3.org/2000/svg" viewBox="0 0 200 200" width="200" height="200">
  <!-- Optimized Chicken Icon Only (Square, centered) -->
  <g transform="translate(-90, -240) scale(1.3)">
    <!-- Main chicken head body - Red -->
    <path fill="#E53935" d="M 211 262 C 211 262, 212 267, 213 273 C 216 285, 213 298, 205 306 C 203 309, 200 311, 200 311 C 199 311, 199 309, 199 307 C 199 300, 193 290, 186 286 C 182 284, 181 285, 181 289 C 181 295, 179 305, 176 309 C 172 318, 161 329, 157 329 C 156 329, 155 327, 154 322 C 153 318, 151 315, 151 315 C 151 315, 147 318, 144 321 C 122 339, 110 369, 114 396 C 115 401, 115 405, 116 405 C 116 406, 118 403, 120 400 C 136 364, 175 339, 214 339 C 230 339, 243 344, 255 356 C 259 360, 263 363, 263 362 C 264 362, 265 359, 266 355 C 268 349, 268 345, 268 334 C 268 321, 268 319, 266 311 C 260 292, 245 276, 224 266 C 218 263, 211 261, 211 262 Z"/>

    <!-- Wattle/beak details - Orange -->
    <path fill="#FFA726" d="M 175 357 C 165 362, 160 365, 151 372 C 140 381, 131 391, 123 406 L 118 414 121 421 C 130 441, 143 455, 162 464 C 174 470, 180 471, 197 471 C 213 471, 218 470, 231 464 L 237 462 237 452 C 237 446, 237 443, 238 443 C 239 443, 241 444, 242 446 C 247 449, 251 449, 256 444 C 261 439, 263 431, 263 421 C 262 413, 261 409, 258 409 C 254 408, 248 410, 240 415 C 215 430, 212 431, 208 427 C 207 426, 203 424, 200 423 C 199 422, 198 420, 197 418 C 196 416, 195 414, 195 414 C 194 414, 194 414, 194 413 C 194 412, 192 410, 190 408 C 187 405, 186 404, 186 401 C 186 399, 185 395, 185 391 C 182 382, 182 374, 183 369 C 184 364, 184 357, 183 355 C 183 354, 181 355, 175 357 Z"/>

    <!-- Eye - Black -->
    <circle fill="#1F1A1E" cx="224" cy="380" r="8"/>

    <!-- Flame accent - Yellow/Orange -->
    <path fill="#FB9E1A" d="M 256 378 C 253 385, 246 408, 246 409 C 247 409, 250 407, 253 405 C 261 400, 276 392, 284 390 C 288 389, 291 388, 291 388 C 291 386, 270 378, 261 376 C 257 375, 257 375, 256 378 Z"/>
  </g>
</svg>
